<svg version="1.1" viewBox="0.0 0.0 289.0761154855643 100.0" fill="none" stroke="none" stroke-linecap="square" stroke-miterlimit="10" xmlns:xlink="http://www.w3.org/1999/xlink" xmlns="http://www.w3.org/2000/svg"><clipPath id="p.0"><path d="m0 0l289.0761 0l0 100.0l-289.0761 0l0 -100.0z" clip-rule="nonzero"/></clipPath><g clip-path="url(#p.0)"><path fill="#000000" fill-opacity="0.0" d="m0 0l289.0761 0l0 100.0l-289.0761 0z" fill-rule="evenodd"/><path fill="#000000" fill-opacity="0.0" d="m0 22.440945l340.28348 0l0 71.1181l-340.28348 0z" fill-rule="evenodd"/><path fill="#0088a9" d="m69.375 17.172817q0 2.90625 -1.375 5.4375q-2.796875 5.03125 -7.09375 8.734375q-4.296875 3.6875 -5.15625 4.109375q0.546875 0.09375 3.5625 3.6875q3.03125 3.578125 3.03125 8.765625q0 4.125 -1.671875 7.8125q-1.671875 3.671875 -4.5 6.46875q-2.828125 2.7968788 -6.546875 4.421879q-3.71875 1.640625 -7.828125 1.640625q-4.0625 0 -7.71875 -1.3125q-3.640625 -1.296875 -6.953125 -3.4218788q-0.578125 -0.375 -1.171875 -0.765625q-0.578125 -0.40625 -1.125 -0.8125q-0.984375 -0.625 -0.984375 -1.875q0 -0.5 1.640625 -0.421875q-2.046875 4.3125 -6.125 6.390629q-4.0625 2.078125 -8.640625 2.078125q-1.21875 0 -1.8125 -0.875q-0.609375 -0.859375 -0.609375 -1.671875q0 -2.0937538 1.96875 -2.4531288q1.390625 -0.359375 2.625 -0.59375q1.234375 -0.234375 2.484375 -0.796875q3.046875 -1.359375 5.421875 -3.796875q2.375 -2.453125 4.265625 -5.484375q1.890625 -3.046875 3.296875 -6.453125q1.421875 -3.40625 2.609375 -6.5625q1.03125 -2.765625 1.9375 -5.59375q0.921875 -2.84375 1.875 -5.71875q0.96875 -2.875 2.078125 -5.703125q1.109375 -2.828125 2.234375 -3.140625q0.375 0.78125 -1.65625 1.703125q-2.03125 0.90625 -3.84375 2.046875q-2.875 1.78125 -5.5625 4.046875q-2.6875 2.265625 -3.828125 5.21875q-0.234375 0.59375 -0.359375 1.171875q-0.125 0.578125 -0.28125 1.28125q-0.59375 1.734375 -2.375 1.734375q-0.671875 0 -1.6875 -0.546875q-1.0 -0.5625 -1.0 -1.734375q0 -3.21875 1.3125 -6.0q1.3125 -2.78125 3.40625 -5.09375q2.109375 -2.328125 4.765625 -4.21875q2.65625 -1.90625 5.46875 -3.484375q2.8125 -1.59375 5.578125 -2.84375q2.78125 -1.25 5.03125 -2.234375q0.03125 -0.015625 0.28125 -0.171875q0.25 -0.15625 0.828125 -0.15625q0.921875 0 1.84375 0.6875q0.921875 0.6875 0.921875 1.9375q0 0.34375 -0.40625 1.40625q-0.40625 1.0625 -0.90625 2.171875q-0.5 1.109375 -0.90625 2.046875q-0.390625 0.921875 -1.734375 0.4375q0.4375 -2.3125 2.515625 -3.8125q2.09375 -1.5 4.40625 -2.734375q2.3125 -1.25 4.765625 -2.078125q2.46875 -0.84375 4.890625 -0.84375q3.609375 0 6.203125 2.046875q2.609375 2.03125 2.609375 5.921875zm-6.515625 0q0 -0.921875 -0.65625 -1.25q-0.65625 -0.34375 -1.921875 -0.34375q-2.046875 0 -4.359375 0.84375q-2.3125 0.84375 -4.609375 2.203125q-2.28125 1.34375 -4.40625 2.96875q-2.125 1.609375 -3.484375 2.78125q-1.484375 4.0625 -3.03125 8.5q-1.546875 4.4375 -3.234375 8.875q-1.71875 4.421875 -3.8125 8.71875q-2.078125 4.28125 -5.03125 8.078125q-0.46875 0.71875 -2.140625 0.296875q-0.296875 -1.46875 0.296875 -1.46875q0.5 0 1.125 0.3125q3.25 1.875 6.484375 3.203125q3.234375 1.328125 6.796875 1.328125q2.796875 0 5.453125 -1.078125q2.65625 -1.09375 4.703125 -3.015625q2.0625 -1.921875 3.28125 -4.40625q1.234375 -2.5 1.234375 -5.328125q0 -2.453125 -0.890625 -3.90625q-0.875 -1.46875 -2.390625 -2.359375q-1.515625 -0.890625 -3.609375 -1.265625q-2.09375 -0.390625 -4.1875 -1.25q0.296875 0.75 -0.03125 0.875q-0.328125 0.125 -0.734375 0.25q-0.390625 0.109375 -0.78125 0.203125q-0.375 0.09375 -0.640625 0.09375q-1.328125 0 -1.984375 -0.890625q-0.640625 -0.890625 -0.640625 -1.875q0 -1.640625 1.109375 -1.984375q0.25 -0.875 0.9375 -0.953125q0.703125 -0.078125 0.859375 -0.140625q0.5625 -0.21875 1.484375 -0.828125q0.9375 -0.625 1.671875 -1.0q1.96875 -1.15625 4.015625 -2.4375q2.0625 -1.28125 4.046875 -2.65625q1.21875 -0.875 2.8125 -2.234375q1.59375 -1.359375 3.015625 -2.953125q1.421875 -1.59375 2.328125 -3.140625q0.921875 -1.546875 0.921875 -2.765625zm30.710938 18.0q0 2.109375 -0.96875 4.078125q-0.953125 1.953125 -2.359375 3.625q-1.40625 1.671875 -3.03125 3.0q-1.625 1.328125 -3.0 2.28125q-2.125 1.453125 -4.546875 2.765625q-2.40625 1.296875 -5.390625 1.296875q-0.71875 0 -2.0625 -0.28125q-1.328125 -0.28125 -1.328125 -2.28125q0 -2.1875 1.984375 -2.625q0.375 -0.140625 0.703125 -0.140625q0.328125 0 0.484375 -0.03125q0.59375 -0.109375 1.21875 -0.40625q0.640625 -0.3125 1.328125 -0.671875q1.109375 -0.71875 2.875 -2.078125q1.765625 -1.375 3.4375 -2.984375q1.6875 -1.609375 2.734375 -3.109375q1.046875 -1.5 1.046875 -2.578125q0.515625 0 0.453125 0.515625q-0.171875 0 -0.484375 0.109375q-0.3125 0.09375 -0.734375 0.234375q-3.109375 1.046875 -5.734375 3.171875q-2.609375 2.125 -4.53125 4.984375q-1.921875 2.84375 -3.015625 6.078125q-1.09375 3.234375 -1.09375 6.421875q0 1.03125 0.15625 2.328125q0.171875 1.296875 0.59375 2.328125q0.421875 1.03125 1.0 1.59375q0.59375 0.5625 1.46875 0.5625q0.296875 0 0.59375 -0.109375q0.3125 -0.109375 0.703125 -0.328125q1.6875 -0.953125 3.1875 -2.609375q1.515625 -1.671875 2.75 -3.46875q0.328125 -0.40625 0.625 -0.859375q0.3125 -0.46875 0.65625 -0.96875q0.640625 -1.015625 1.953125 -1.015625q0.90625 0 1.796875 0.65625q0.90625 0.640625 0.90625 1.890625q0 0.5 -0.3125 1.109375q-0.890625 1.640625 -2.21875 3.59375q-1.3125 1.953125 -2.96875 3.6875038q-1.65625 1.71875 -3.71875 2.96875q-2.0625 1.265625 -4.453125 1.265625q-2.71875 0 -4.5 -1.515625q-1.78125 -1.515625 -2.734375 -3.546875q-0.953125 -2.0468788 -1.34375 -4.281254q-0.375 -2.234375 -0.375 -4.046875q0 -5.671875 2.375 -10.828125q2.375 -5.171875 6.359375 -9.078125q1.1875 -1.1875 2.734375 -2.40625q1.5625 -1.234375 3.328125 -2.234375q1.765625 -1.015625 3.671875 -1.671875q1.90625 -0.671875 3.78125 -0.671875q2.703125 0 4.34375 1.84375q1.65625 1.828125 1.65625 4.4375zm32.898438 24.609375q0 1.25 -0.96875 1.859375q-0.75 0.59375 -1.84375 1.40625q-1.078125 0.796875 -2.328125 1.5625038q-1.234375 0.765625 -2.453125 1.421875q-1.203125 0.671875 -2.1875 1.0625q-1.875 0.8125 -3.59375 0.8125q-2.9375 0 -4.234375 -2.046875q-1.28125 -2.0468788 -1.28125 -4.312504q0 -2.375 0.734375 -5.265625q0.734375 -2.890625 1.734375 -5.8125q1.0 -2.9375 2.09375 -5.71875q1.09375 -2.796875 1.859375 -4.90625q0.765625 -1.984375 1.359375 -3.953125q0.609375 -1.984375 1.140625 -2.765625q0.375 0.40625 -1.640625 1.578125q-2.015625 1.171875 -4.328125 2.796875q-2.3125 1.625 -4.421875 3.25q-2.109375 1.609375 -3.03125 2.265625l-2.359375 4.71875q-1.6875 3.28125 -3.1875 6.53125q-1.484375 3.25 -2.875 6.578125q-0.625 1.5625 -1.203125 3.2031288q-0.5625 1.640625 -1.265625 3.265625q-0.546875 1.5 -2.15625 1.5q-0.78125 0 -1.75 -0.734375q-0.953125 -0.71875 -0.953125 -1.75q0 -0.25 0.125 -0.71875q0.125 -0.46875 0.234375 -0.953125q0.09375 -0.5 0.34375 -0.8125038q0.234375 -0.328125 -0.078125 -0.515625q1.265625 -4.90625 3.015625 -9.46875q1.765625 -4.578125 3.90625 -9.0q0.96875 -2.015625 1.875 -4.078125q0.921875 -2.078125 1.9375 -4.1875q0.4375 -0.796875 1.03125 -1.921875q0.59375 -1.125 1.28125 -2.328125q0.703125 -1.203125 1.46875 -2.3125q0.765625 -1.125 1.5 -1.78125q0.6875 -0.6875 1.671875 -0.6875q0.796875 0 1.78125 0.765625q0.984375 0.765625 0.984375 1.859375q0 0.4375 -0.296875 1.359375q-0.296875 0.90625 -0.65625 1.8125q-0.359375 0.890625 -0.65625 1.65625q-0.296875 0.765625 -1.640625 0.3125q0.046875 -1.984375 1.671875 -3.359375q1.640625 -1.390625 3.546875 -2.578125q1.90625 -1.1875 4.0 -2.0q2.09375 -0.8125 4.0625 -0.8125q1.609375 0 2.875 1.28125q1.28125 1.265625 1.484375 2.703125q0.15625 0.796875 0.15625 1.3125q0 1.375 -0.484375 3.234375q-0.484375 1.84375 -0.921875 3.09375q-0.71875 2.0625 -2.0625 5.421875q-1.34375 3.34375 -2.671875 6.828125q-1.3125 3.484375 -2.265625 6.59375q-0.9375 3.09375 -0.9375 4.703125q0 0.578125 -0.15625 0.609375q-0.15625 0.03125 -0.15625 -0.28125q0.9375 0 2.484375 -0.6875q1.546875 -0.6875 3.109375 -1.609375q1.578125 -0.921875 2.9375 -1.796875q1.375 -0.890625 2.09375 -0.890625q1.140625 0 1.84375 0.875q0.703125 0.859375 0.703125 1.8125zm15.6171875 -46.96875q-0.265625 1.09375 -0.421875 1.625q-0.15625 0.515625 -1.859375 0.203125l0.140625 -0.34375q0.125 2.34375 -1.46875 2.34375q-2.0625 0 -2.84375 -1.59375q-0.765625 -1.609375 -0.765625 -2.9375q0 -1.40625 1.0625 -2.296875q1.078125 -0.890625 2.265625 -0.890625q0.53125 0 0.90625 0.09375q0.375 0.09375 0.96875 0.25q1.796875 1.375 0.6875 2.953125q0.90625 -0.40625 0.984375 -0.203125q0.078125 0.203125 0.34375 0.796875zm-2.390625 17.859375q0 1.28125 -0.296875 2.765625q-0.296875 1.46875 -0.515625 2.5625q-1.484375 8.6875 -4.296875 16.890625q-2.796875 8.1875 -6.046875 16.328129q-1.140625 2.765625 -2.390625 5.578125q-1.234375 2.828125 -2.765625 5.53125q-1.53125 2.71875 -3.4375 5.203125q-1.90625 2.5 -4.34375 4.578125q-3.796875 3.171875 -8.421875 3.171875q-2.5 0 -4.859375 -0.8125q-2.375 -0.8125 -4.375 -2.25q-2.015625 -1.421875 -3.546875 -3.375q-1.546875 -1.953125 -2.578125 -4.46875q1.28125 -0.34375 0.609375 -0.109375q-0.671875 0.234375 -0.671875 -0.53125q0 -1.1875 0.890625 -1.84375q0.890625 -0.640625 1.796875 -0.640625q1.359375 0 2.0625 1.21875q0.359375 0.578125 0.65625 1.125q0.296875 0.546875 0.703125 1.03125q1.546875 2.109375 3.90625 3.46875q2.359375 1.375 4.90625 1.375q2.796875 0 4.90625 -1.921875q1.84375 -1.65625 3.421875 -3.90625q1.578125 -2.234375 2.90625 -4.75q1.328125 -2.5 2.453125 -5.09375q1.109375 -2.59375 2.09375 -5.03125q2.4375 -6.156254 4.46875 -12.343754q2.03125 -6.203125 3.984375 -12.578125l2.546875 -8.4375q0.34375 -0.859375 0.546875 -1.765625q0.21875 -0.921875 0.640625 -1.9375q0.796875 -1.578125 2.421875 -1.578125q0.953125 0 1.78125 0.671875q0.84375 0.671875 0.84375 1.875zm33.679688 23.203125q-2.03125 4.125 -4.078125 7.171875q-2.046875 3.0468788 -5.359375 5.921879q-1.96875 1.78125 -4.515625 1.78125q-1.484375 0 -2.84375 -0.859375q-1.359375 -0.859375 -1.859375 -2.390625q-0.21875 -0.53125 -0.265625 -1.28125q-0.046875 -0.7656288 -0.078125 -1.5000038q-0.03125 -0.75 0 -1.4375q0.03125 -0.6875 1.375 -0.65625q-1.296875 3.6718788 -4.9375 5.921879q-3.625 2.265625 -8.046875 2.265625q-0.484375 0 -0.96875 -0.1875q-0.484375 -0.171875 -0.765625 -0.25q-2.203125 -1.0625 -3.203125 -3.140625q-1.0 -2.0781288 -1.0 -4.109379q0 -2.515625 0.640625 -4.953125q0.640625 -2.453125 1.703125 -4.71875q1.078125 -2.265625 2.46875 -4.3125q1.390625 -2.046875 2.921875 -3.84375q3.921875 -4.875 9.0 -8.46875q5.09375 -3.59375 11.359375 -4.640625q-0.453125 -1.296875 0.484375 -1.296875q1.265625 0 1.875 0.859375q0.609375 0.859375 0.609375 1.765625q0 1.65625 -1.359375 2.203125q-1.15625 0.625 -2.3125 1.15625q-1.15625 0.515625 -2.21875 1.109375q-7.53125 4.34375 -12.6875 11.140625q-1.03125 1.359375 -2.125 3.0625q-1.078125 1.6875 -1.953125 3.453125q-0.859375 1.765625 -1.40625 3.578125q-0.546875 1.796875 -0.546875 3.40625q0 0.1875 0.046875 0.625q0.0625 0.421875 0.15625 0.75q0.09375 0.328125 -0.078125 0.625q-0.15625 0.296875 -0.15625 -0.328125q1.65625 0 3.328125 -0.90625q1.6875 -0.921875 3.25 -2.421875q1.5625 -1.5 2.828125 -3.234375q1.265625 -1.734375 2.0625 -3.265625q1.609375 -2.90625 2.859375 -5.84375q1.25 -2.953125 2.5 -5.96875q0.484375 -1.25 1.171875 -2.96875q0.6875 -1.734375 1.359375 -3.015625q0.71875 -1.28125 2.234375 -1.28125q1.015625 0 1.84375 0.671875q0.84375 0.671875 0.84375 2.203125l-0.125 0.296875q-0.546875 2.421875 -1.265625 5.03125q-0.703125 2.59375 -1.5625 5.125q-0.375 1.03125 -0.875 2.21875q-0.484375 1.171875 -0.734375 1.953125q-0.09375 0.296875 -0.125 0.734375q-0.015625 0.4375 -0.109375 1.03125q-0.21875 1.171875 -0.484375 2.28125q-0.25 1.109375 -0.53125 2.25q-0.328125 1.359375 -0.5625 2.71875q-0.234375 1.34375 -0.234375 2.6875q0 0.359375 0 0.546875q0 0.171875 -1.125 0.265625q-0.25 -1.109375 0.1875 -1.390625q0.453125 -0.28125 1.078125 -0.8125q0.640625 -0.546875 1.21875 -1.15625q0.578125 -0.625 0.9375 -0.96875q2.0 -2.125 3.875 -4.859375q0.46875 -0.515625 0.84375 -1.171875q0.390625 -0.671875 0.875 -1.234375q0.5625 -0.984375 1.859375 -0.984375q1.125 0 1.90625 0.796875q0.796875 0.78125 0.796875 2.25zm49.289062 6.1875q0 1.234375 -1.5625 2.4375q-1.5625 1.203125 -3.234375 2.1875038q-1.671875 0.984375 -3.25 1.828125q-1.5625 0.84375 -2.21875 1.078125q-1.59375 0.59375 -3.046875 0.59375q-3.109375 0 -4.3125 -2.03125q-1.203125 -2.03125 -1.203125 -4.468754q0 -2.375 0.796875 -5.453125q0.8125 -3.078125 1.921875 -6.234375q1.109375 -3.171875 2.265625 -6.171875q1.15625 -3.0 1.921875 -5.125q0.484375 -1.453125 1.046875 -3.234375q0.5625 -1.796875 1.28125 -2.140625q0.3125 0.65625 -0.890625 1.203125q-1.1875 0.546875 -1.9375 1.046875q-3.109375 2.078125 -6.03125 4.34375q-2.921875 2.265625 -5.484375 4.390625q-1.015625 4.015625 -2.4375 8.4375q-1.421875 4.40625 -3.296875 8.71875q-0.546875 1.171875 -1.109375 2.5q-0.546875 1.3281288 -1.296875 2.4375038q-0.6875 1.21875 -2.046875 1.21875q-0.875 0 -1.828125 -0.734375q-0.9375 -0.734375 -0.9375 -1.828125q0 -0.21875 0.234375 -1.3281288q0.234375 -1.109375 1.34375 -0.625q-0.125 -4.578125 1.25 -8.78125q1.390625 -4.21875 2.78125 -8.421875q1.109375 -3.75 2.09375 -7.515625q0.421875 -1.59375 0.75 -3.140625q0.328125 -1.5625 0.328125 -3.03125q0 -0.171875 -0.03125 -0.375q-0.03125 -0.21875 1.296875 -0.328125q-0.828125 1.53125 -2.65625 3.109375q-1.828125 1.5625 -3.75 3.71875q-1.90625 2.15625 -3.671875 4.375q-1.765625 2.21875 -3.0 3.609375q-0.609375 0.609375 -1.234375 -0.765625q1.078125 0.921875 0.890625 1.375q-0.1875 0.4375 -0.421875 0.84375q-1.59375 3.09375 -3.015625 6.171875q-1.421875 3.0625 -2.765625 6.28125q-0.734375 1.703125 -1.34375 3.5q-0.59375 1.7812538 -1.296875 3.5468788q-0.5625 1.53125 -2.171875 1.53125q-0.859375 0 -1.828125 -0.734375q-0.953125 -0.71875 -0.953125 -1.75q0 -0.265625 0.140625 -0.734375q0.125 -0.46875 0.21875 -0.953125q0.109375 -0.484375 0.34375 -0.7968788q0.25 -0.328125 -0.0625 -0.515625q1.265625 -4.90625 3.015625 -9.46875q1.75 -4.578125 3.890625 -9.0q0.96875 -2.015625 1.875 -4.09375q0.921875 -2.09375 2.0 -4.171875q0.421875 -0.828125 1.0 -1.984375q0.578125 -1.15625 1.265625 -2.28125q0.6875 -1.125 1.4375 -2.21875q0.765625 -1.109375 1.515625 -1.828125q0.703125 -0.71875 1.671875 -0.71875q0.796875 0 1.78125 0.765625q0.984375 0.765625 0.984375 1.859375q0 0.453125 -0.28125 1.28125q-0.28125 0.8125 -0.578125 1.6875q-0.28125 0.859375 -0.59375 1.578125q-0.296875 0.703125 -1.671875 0.25q-0.5 -1.640625 0.65625 -2.9375q1.171875 -1.3125 2.5625 -2.546875q1.40625 -1.25 3.046875 -2.15625q1.65625 -0.90625 3.375 -0.90625q1.5 0 2.53125 0.65625q1.03125 0.65625 1.484375 1.625q0.46875 0.96875 0.59375 1.984375q0.125 1.0 0.125 1.9375q0 1.515625 -0.234375 3.015625q-0.21875 1.5 -1.296875 1.296875q-0.4375 -1.09375 1.5 -2.859375q1.953125 -1.78125 4.21875 -3.359375q2.28125 -1.578125 4.703125 -2.6875q2.4375 -1.125 4.65625 -1.125q1.734375 0 3.125 1.34375q1.40625 1.34375 1.40625 3.109375q0 1.421875 -0.15625 2.8125q-0.15625 1.390625 -0.609375 2.78125q-0.859375 2.90625 -2.0 5.796875q-1.140625 2.875 -2.265625 5.6875q-1.109375 2.796875 -2.125 5.5625q-1.0 2.765625 -1.671875 5.609375q-0.140625 0.671875 -0.265625 1.3125q-0.125 0.625 -0.125 1.171875q0 0.578125 -0.15625 0.609375q-0.140625 0.015625 -0.140625 -0.28125q0.859375 0 2.359375 -0.6875q1.515625 -0.6875 3.125 -1.609375q1.609375 -0.9375 3.0 -1.8125q1.40625 -0.890625 2.125 -0.890625q1.078125 0 1.8125 0.8125q0.75 0.8125 0.75 1.8125zm17.921875 -47.953125q0 0.84375 -0.484375 1.640625l-0.71875 -0.4375q0.921875 0.171875 0.921875 1.375q-0.828125 0.625 -1.171875 1.25q-0.34375 0.625 -2.015625 0.625q-1.171875 0 -2.28125 -0.921875q-1.109375 -0.921875 -1.109375 -2.40625q0 -1.484375 0.4375 -2.921875q0.4375 -1.453125 3.171875 -1.453125q1.25 0 2.25 1.0q1.0 1.0 1.0 2.25zm-0.484375 44.859375q0 1.015625 -0.625 1.59375q-1.25 1.53125 -2.515625 3.140625q-1.25 1.609375 -2.734375 3.0625038q-1.46875 1.4375 -3.359375 2.484375q-1.875 1.0625 -4.765625 1.625q-2.796875 -1.25 -3.703125 -3.015625q-0.90625 -1.78125 -0.90625 -4.109379l0 -2.53125q0 -1.96875 0.390625 -4.015625q0.40625 -2.0625 0.828125 -3.921875q0.65625 -2.75 1.46875 -5.953125q0.8125 -3.203125 1.921875 -6.40625q1.125 -3.203125 2.578125 -6.21875q1.46875 -3.03125 3.390625 -5.4375q0.859375 -0.828125 1.8125 -0.828125q0.921875 0 1.84375 0.6875q0.921875 0.6875 0.921875 1.9375l0 0.375q-1.265625 3.96875 -2.78125 8.09375q-1.515625 4.109375 -2.875 8.3125q-1.34375 4.203125 -2.28125 8.3125q-0.921875 4.109375 -0.921875 7.875q0 0.390625 -0.3125 0.921875q-0.3125 0.53125 -0.46875 -0.171875q0.703125 -0.25 2.234375 -1.453125q1.546875 -1.203125 3.015625 -2.625q1.484375 -1.4375 2.8125 -2.859375q1.34375 -1.421875 2.40625 -1.421875q0.921875 0 1.765625 0.765625q0.859375 0.765625 0.859375 1.78125zm33.742188 2.8125q0 1.25 -0.96875 1.859375q-0.75 0.59375 -1.84375 1.40625q-1.078125 0.796875 -2.328125 1.5625038q-1.234375 0.765625 -2.453125 1.421875q-1.203125 0.671875 -2.1875 1.0625q-1.875 0.8125 -3.59375 0.8125q-2.9375 0 -4.234375 -2.046875q-1.28125 -2.0468788 -1.28125 -4.312504q0 -2.375 0.734375 -5.265625q0.734375 -2.890625 1.734375 -5.8125q1.0 -2.9375 2.09375 -5.71875q1.09375 -2.796875 1.859375 -4.90625q0.765625 -1.984375 1.359375 -3.953125q0.609375 -1.984375 1.140625 -2.765625q0.375 0.40625 -1.640625 1.578125q-2.015625 1.171875 -4.328125 2.796875q-2.3125 1.625 -4.421875 3.25q-2.109375 1.609375 -3.03125 2.265625l-2.359375 4.71875q-1.6875 3.28125 -3.1875 6.53125q-1.484375 3.25 -2.875 6.578125q-0.625 1.5625 -1.203125 3.2031288q-0.5625 1.640625 -1.265625 3.265625q-0.546875 1.5 -2.15625 1.5q-0.78125 0 -1.75 -0.734375q-0.953125 -0.71875 -0.953125 -1.75q0 -0.25 0.125 -0.71875q0.125 -0.46875 0.234375 -0.953125q0.09375 -0.5 0.34375 -0.8125038q0.234375 -0.328125 -0.078125 -0.515625q1.265625 -4.90625 3.015625 -9.46875q1.765625 -4.578125 3.90625 -9.0q0.96875 -2.015625 1.875 -4.078125q0.921875 -2.078125 1.9375 -4.1875q0.4375 -0.796875 1.03125 -1.921875q0.59375 -1.125 1.28125 -2.328125q0.703125 -1.203125 1.46875 -2.3125q0.765625 -1.125 1.5 -1.78125q0.6875 -0.6875 1.671875 -0.6875q0.796875 0 1.78125 0.765625q0.984375 0.765625 0.984375 1.859375q0 0.4375 -0.296875 1.359375q-0.296875 0.90625 -0.65625 1.8125q-0.359375 0.890625 -0.65625 1.65625q-0.296875 0.765625 -1.640625 0.3125q0.046875 -1.984375 1.671875 -3.359375q1.640625 -1.390625 3.546875 -2.578125q1.90625 -1.1875 4.0 -2.0q2.09375 -0.8125 4.0625 -0.8125q1.609375 0 2.875 1.28125q1.28125 1.265625 1.484375 2.703125q0.15625 0.796875 0.15625 1.3125q0 1.375 -0.484375 3.234375q-0.484375 1.84375 -0.921875 3.09375q-0.71875 2.0625 -2.0625 5.421875q-1.34375 3.34375 -2.671875 6.828125q-1.3125 3.484375 -2.265625 6.59375q-0.9375 3.09375 -0.9375 4.703125q0 0.578125 -0.15625 0.609375q-0.15625 0.03125 -0.15625 -0.28125q0.9375 0 2.484375 -0.6875q1.546875 -0.6875 3.109375 -1.609375q1.578125 -0.921875 2.9375 -1.796875q1.375 -0.890625 2.09375 -0.890625q1.140625 0 1.84375 0.875q0.703125 0.859375 0.703125 1.8125z" fill-rule="nonzero"/></g></svg>